<svg xmlns="http://www.w3.org/2000/svg" width="25.801" height="21.063" viewBox="0 0 25.801 21.063">
  <path id="联合_19" data-name="联合 19" d="M2.17,21.064A1.957,1.957,0,0,1,0,19.193v-.506a2.635,2.635,0,0,1,1.84-2.364l4.418-1.906a4.975,4.975,0,0,0,1.524-.711,1.646,1.646,0,0,0,.008-1.532c-.276-.513-2.514-3.335-2.514-5.7C5.277,2.658,7.866,0,11.061,0s5.786,2.657,5.786,6.473c0,2.47-2.512,5.188-2.718,5.86s-.223,1.192.008,1.413a5.2,5.2,0,0,0,1.3.7l4.9,1.85a2.668,2.668,0,0,1,1.84,2.392v.506a1.957,1.957,0,0,1-2.17,1.87ZM21.6,5.756V4.475H20.074a.873.873,0,0,1,0-1.745H21.6V1.23a.9.9,0,1,1,1.8,0v1.5h1.528a.873.873,0,0,1,0,1.745H23.4V5.756a.9.9,0,0,1-1.8,0Z" transform="translate(0 -0.001)"/>
</svg>
