<svg xmlns="http://www.w3.org/2000/svg" width="16" height="16" viewBox="0 0 16 16">
  <g id="组_4542" data-name="组 4542" transform="translate(-46 -236)">
    <g id="矩形_1091" data-name="矩形 1091" transform="translate(46 236)" fill="none" stroke="#1b5293" stroke-width="1">
      <rect x="0.5" y="0.5" width="15" height="15" rx="2.5" fill="none"/>
    </g>
    <path id="路径_7514" data-name="路径 7514" d="M181.39,181.058c.236,0,.428.094.428.33a.431.431,0,0,1-.429.429H171.1a.431.431,0,0,1-.429-.429c0-.237.193-.33.429-.33h.429v-9.534a.861.861,0,0,1,.857-.857H177.1a.86.86,0,0,1,.857.857v2.145H180.1a.859.859,0,0,1,.857.857v6.532Zm-4.193-6.532v-3.062h-4.915v9.594H177.2v-6.532Zm2.986,6.532v-6.532h-2.226v6.532Zm-6.513-7.072a.377.377,0,1,1,0-.747h2.144a.377.377,0,1,1,0,.747Zm0,5.145a.377.377,0,1,1,0-.747h2.144a.377.377,0,1,1,0,.747Zm5.146-2.144a.377.377,0,1,1,0-.746h.43a.377.377,0,1,1,0,.746Zm0,2.144a.377.377,0,1,1,0-.747h.43a.377.377,0,1,1,0,.747Zm-5.146-2.573a.377.377,0,1,1,0-.746h2.144a.377.377,0,1,1,0,.746Z" transform="translate(-122.242 67.758)"/>
  </g>
</svg>
