<svg xmlns="http://www.w3.org/2000/svg" width="22.176" height="21.063" viewBox="0 0 22.176 21.063">
  <path id="联合_21" data-name="联合 21" d="M20.335,16.294l-4.9-1.85a5.2,5.2,0,0,1-1.3-.7c-.231-.221-.215-.745-.008-1.413s2.718-3.391,2.718-5.86C16.847,2.656,14.256,0,11.061,0S5.276,2.656,5.276,6.474c0,2.365,2.238,5.186,2.514,5.7a1.647,1.647,0,0,1-.008,1.533,4.987,4.987,0,0,1-1.524.711L1.841,16.322A2.635,2.635,0,0,0,0,18.687v.505a1.957,1.957,0,0,0,2.17,1.87H20.006a1.957,1.957,0,0,0,2.17-1.87v-.505a2.667,2.667,0,0,0-1.841-2.393Z"/>
</svg>
