<svg xmlns="http://www.w3.org/2000/svg" xmlns:xlink="http://www.w3.org/1999/xlink" width="45" height="45" viewBox="0 0 45 45">
  <defs>
    <clipPath id="clip-path">
      <rect id="矩形_1727" data-name="矩形 1727" width="45" height="45" transform="translate(6972 3449)" fill="#fff" stroke="#707070" stroke-width="1" opacity="0.2"/>
    </clipPath>
  </defs>
  <g id="蒙版组_29" data-name="蒙版组 29" transform="translate(-6972 -3449)" clip-path="url(#clip-path)">
    <path id="路径_1094" data-name="路径 1094" d="M122.149,89.41h-7.292a1.8,1.8,0,0,1-1.8-1.8V84.253a8.771,8.771,0,1,0-12.047,0v3.361a1.8,1.8,0,0,1-1.8,1.8H91.925A2.318,2.318,0,0,0,89.6,91.735v5.939A2.318,2.318,0,0,0,91.925,100H122.17a2.318,2.318,0,0,0,2.325-2.325V91.735A2.35,2.35,0,0,0,122.149,89.41Zm-.845,7.4H92.77V92.581h6.446a4.961,4.961,0,0,0,4.967-4.967V83.6a1.861,1.861,0,0,0-.042-.359,1.558,1.558,0,0,0-.571-.951,5.6,5.6,0,1,1,6.933,0,1.6,1.6,0,0,0-.613,1.268v4.058a4.961,4.961,0,0,0,4.967,4.967H121.3Zm-1.585,5.707H94.356a1.585,1.585,0,0,0,0,3.17h25.363a1.585,1.585,0,1,0,0-3.17Z" transform="translate(6887.4 3383.88)"/>
  </g>
</svg>
