<?xml version="1.0" standalone="no"?><!DOCTYPE svg PUBLIC "-//W3C//DTD SVG 1.1//EN" "http://www.w3.org/Graphics/SVG/1.1/DTD/svg11.dtd"><svg t="1619397448824" class="icon" viewBox="0 0 1024 1024" version="1.1" xmlns="http://www.w3.org/2000/svg" p-id="1983" xmlns:xlink="http://www.w3.org/1999/xlink" width="128" height="128"><defs><style type="text/css"></style></defs><path d="M64 104.1c0-1.3 0.5-2.6 1.5-3.6s2.3-1.5 3.6-1.5H101c1.3 0 2.6 0.5 3.6 1.5s1.5 2.3 1.5 3.6V883H955c1.3 0 2.6 0.5 3.6 1.5s1.5 2.3 1.5 3.6V920c0 1.3-0.5 2.6-1.5 3.6s-2.3 1.5-3.6 1.5H64v-821z" p-id="1984"></path><path d="M570.4 578.7h250v250h-250zM820.4 519h-250V198.7c0-9.6 7.8-17.4 17.4-17.4h218.6c7.7 0 13.9 6.2 13.9 13.9V519zM232.2 676.7h250v152h-250zM482.2 617h-250V382.9c0-9.6 7.8-17.4 17.4-17.4h218.6c7.7 0 13.9 6.2 13.9 13.9V617z" p-id="1985"></path></svg>