<svg xmlns="http://www.w3.org/2000/svg" xmlns:xlink="http://www.w3.org/1999/xlink" width="64" height="64" viewBox="0 0 64 64">
  <path id="减去_10" data-name="减去 10" d="M31,62A31.008,31.008,0,0,1,18.933,2.436,31.008,31.008,0,0,1,43.067,59.564,30.808,30.808,0,0,1,31,62ZM31,5A26,26,0,1,0,57,31,26.029,26.029,0,0,0,31,5Z" transform="translate(1 1)"/>
  <path id="联合_5" data-name="联合 5" d="M10.122,28.949h0l-.008-.008-.054-.054L.929,19.758l.042-.042A2,2,0,0,1,0,18V2A2,2,0,0,1,4,2V17.171l8.877,8.878a2,2,0,1,1-2.755,2.9Z" transform="translate(30 15)"/>
</svg>
