<svg xmlns="http://www.w3.org/2000/svg" xmlns:xlink="http://www.w3.org/1999/xlink" width="64" height="64" viewBox="0 0 64 64">
  <path id="路径_1045" data-name="路径 1045" d="M156.642,85.266c-3.14,0-5.7-2.037-5.7-4.413,0-2.49,2.558-4.413,5.7-4.413a2.231,2.231,0,0,0,2.442-1.924V34.924A2.31,2.31,0,0,0,156.642,33H117.9c-5.93,0-10.7,3.734-10.7,8.261V80.739c0,4.64,4.767,8.261,10.7,8.261h38.86a2.231,2.231,0,0,0,2.442-1.924c0-1.018-1.163-1.811-2.558-1.811Zm-36.3-48.418H154.2v35.63H120.34V36.848Zm-8.256,4.413A4.423,4.423,0,0,1,115.34,37.3V72.7a15.519,15.519,0,0,0-3.256,1.018V41.261Zm35.488,44H117.9c-3.14,0-5.7-2.037-5.7-4.413,0-2.49,2.558-4.413,5.7-4.413h29.791a7.3,7.3,0,0,0-1.744,4.413,7.4,7.4,0,0,0,1.628,4.413Zm0,0" transform="translate(-101.201 -29)" />
</svg>
