<svg xmlns="http://www.w3.org/2000/svg" xmlns:xlink="http://www.w3.org/1999/xlink" viewBox="0 0 128.002 128">
    <path id="_3" data-name="3" d="M119.976,205.171H8.359a8.346,8.346,0,0,0-8.346,8.346v71.666A8.569,8.569,0,0,0,8.025,294.2H119.976a8.569,8.569,0,0,0,8.012-9.014V213.267a8.04,8.04,0,0,0-8.012-8.1Z" transform="translate(0.002 -174.865)" fill="#fac83f"/>
    <path id="_2" data-name="2" d="M120.08,12.264h-62.4L50.5,1.3A3.394,3.394,0,0,0,47.245.05H8.686A8.346,8.346,0,0,0,.117,8.4V30.653a8.346,8.346,0,0,1,8.346-8.346H120.08a8.04,8.04,0,0,1,8.012,8.1V21.278a8.569,8.569,0,0,0-8.012-9.014Z" transform="translate(-0.104 8)" fill="#febc13"/>
    <path id="_1" data-name="1" d="M16,0h96a16,16,0,0,1,16,16v96a16,16,0,0,1-16,16H16A16,16,0,0,1,0,112V16A16,16,0,0,1,16,0Z" fill="none"/>
</svg>
