<svg xmlns="http://www.w3.org/2000/svg" xmlns:xlink="http://www.w3.org/1999/xlink" width="45" height="45" viewBox="0 0 45 45">
  <defs>
    <clipPath id="clip-path">
      <rect id="矩形_1729" data-name="矩形 1729" width="45" height="45" transform="translate(6728 3449)" fill="#fff" stroke="#707070" stroke-width="1" opacity="0.2"/>
    </clipPath>
  </defs>
  <g id="蒙版组_26" data-name="蒙版组 26" transform="translate(-6728 -3449)" clip-path="url(#clip-path)">
    <path id="路径_1093" data-name="路径 1093" d="M34.559,33.319a1.29,1.29,0,1,0,0,2.579H67.767a1.29,1.29,0,1,0,0-2.579H34.559Zm30.835-2.437a1.29,1.29,0,0,0,1.246-1.625l-2.445-9.123a1.883,1.883,0,0,0-.524-1.22l-.028-.031-2.52-2.517L45.312.555a1.9,1.9,0,0,0-2.682,0l-6.27,6.27a1.9,1.9,0,0,0,0,2.682L52.17,25.318l2.52,2.52.031.028a1.883,1.883,0,0,0,1.22.524l9.118,2.445a1.277,1.277,0,0,0,.335.046ZM48.42,7.307l9.969,9.974-5.308,5.3-9.969-9.969,5.305-5.305ZM43.971,2.861,46.6,5.487l-5.308,5.305L38.663,8.164l5.308-5.305ZM61.659,20.632l1.909,7.134-7.134-1.911q-.052-.015-.106-.026L54.9,24.408l5.308-5.3,1.424,1.421q.009.055.023.108Z" transform="translate(6699.73 3454)"/>
  </g>
</svg>
