<svg xmlns="http://www.w3.org/2000/svg" xmlns:xlink="http://www.w3.org/1999/xlink" width="64" height="64" viewBox="0 0 64 64">
  <g id="蒙版组_186" data-name="蒙版组 186" transform="translate(4 4)">
  <path d="M 8 4 C 5.794387817382813 4 4 5.794387817382813 4 8 L 4 48 C 4 50.20561218261719 5.794387817382813 52 8 52 L 48 52 C 50.20561218261719 52 52 50.20561218261719 52 48 L 52 8 C 52 5.794387817382813 50.20561218261719 4 48 4 L 8 4 M 8 0 L 48 0 C 52.41827774047852 0 56 3.581722259521484 56 8 L 56 48 C 56 52.41827774047852 52.41827774047852 56 48 56 L 8 56 C 3.581722259521484 56 0 52.41827774047852 0 48 L 0 8 C 0 3.581722259521484 3.581722259521484 0 8 0 Z" />
  <path id="路径_1053" data-name="路径 1053" d="M.736-14.848v-2.624a.916.916,0,0,1,.48-.832l2.912-1.824a2.538,2.538,0,0,1,1.248-.448h2.56a.594.594,0,0,1,.672.672V-.672a.745.745,0,0,1-.144.528.689.689,0,0,1-.5.144H5.216a.594.594,0,0,1-.672-.672V-16.256L1.408-14.464Q.736-14.176.736-14.848ZM13.536-.672v-3.04a3.878,3.878,0,0,1,1.568-3.1l5.888-4.992a3.342,3.342,0,0,0,1.44-2.56v-.96a1.873,1.873,0,0,0-.464-1.424,2.193,2.193,0,0,0-1.52-.432h-1.12a1.953,1.953,0,0,0-1.44.432,2.01,2.01,0,0,0-.416,1.424V-14.3q0,.7-.672.7H14.08q-.672,0-.672-.7v-1.088a5.125,5.125,0,0,1,1.376-3.84,5.355,5.355,0,0,1,3.9-1.344H21.12a5.355,5.355,0,0,1,3.9,1.344,5.125,5.125,0,0,1,1.376,3.84v1.28a5.186,5.186,0,0,1-1.92,4.128l-6.016,5.12a1.033,1.033,0,0,0-.384.768v.512h7.648a.594.594,0,0,1,.672.672v2.24A.594.594,0,0,1,25.728,0H14.208A.594.594,0,0,1,13.536-.672Zm22.624-11.3h1.632a2.193,2.193,0,0,0,1.52-.432,1.873,1.873,0,0,0,.464-1.424v-1.5a1.873,1.873,0,0,0-.464-1.424,2.193,2.193,0,0,0-1.52-.432H36.256a1.953,1.953,0,0,0-1.44.432,2.01,2.01,0,0,0-.416,1.424v.8a.594.594,0,0,1-.672.672h-2.72a.594.594,0,0,1-.672-.672v-.864a5.125,5.125,0,0,1,1.376-3.84,5.355,5.355,0,0,1,3.9-1.344h2.848a5.355,5.355,0,0,1,3.9,1.344,5.125,5.125,0,0,1,1.376,3.84v1.6A3.335,3.335,0,0,1,41.216-10.3q2.528.544,2.528,3.488v1.632a5.125,5.125,0,0,1-1.376,3.84A5.355,5.355,0,0,1,38.464,0H35.616a5.355,5.355,0,0,1-3.9-1.344,5.125,5.125,0,0,1-1.376-3.84v-.9q0-.7.672-.7h2.72q.672,0,.672.7v.832a2,2,0,0,0,.416,1.44,2,2,0,0,0,1.44.416h1.536a2.193,2.193,0,0,0,1.52-.432,1.873,1.873,0,0,0,.464-1.424V-6.816a1.873,1.873,0,0,0-.464-1.424,2.193,2.193,0,0,0-1.52-.432H36.16a.594.594,0,0,1-.672-.672v-1.92Q35.488-11.968,36.16-11.968Z" transform="translate(6 38)" />
  </g>
</svg>
