<svg xmlns="http://www.w3.org/2000/svg" xmlns:xlink="http://www.w3.org/1999/xlink" viewBox="0 0 128 128">
    <g id="org-g" transform="translate(22610 6857)">
      <g id="_3" data-name="3" transform="translate(-22610 -6857)" fill="none" stroke="#d60002" stroke-width="8">
        <rect width="128" height="128" rx="16" stroke="none"/>
        <rect x="4" y="4" width="120" height="120" rx="12" fill="none"/>
      </g>
      <path id="_2" data-name="2" d="M22738.828,7076.6a7.23,7.23,0,0,1-7.229-7.229V7027.6a10.447,10.447,0,0,1,10.443-10.44h28.115v-28.115a10.445,10.445,0,0,1,10.439-10.44h38.557a10.447,10.447,0,0,1,10.445,10.44v80.326a7.236,7.236,0,0,1-7.23,7.229Zm82.738-8.033v-79.522a2.414,2.414,0,0,0-2.412-2.412H22780.6a2.409,2.409,0,0,0-2.406,2.412v79.522Zm-81.934-40.967v40.967h30.525v-43.375h-28.115A2.407,2.407,0,0,0,22739.633,7027.6Zm53.816,23.3a4.017,4.017,0,0,1,0-8.033h12.85a4.017,4.017,0,1,1,0,8.033Zm0-19.277a4.017,4.017,0,0,1,0-8.034h12.85a4.017,4.017,0,1,1,0,8.034Zm0-19.278a4.017,4.017,0,0,1,0-8.034h12.85a4.017,4.017,0,1,1,0,8.034Z" transform="translate(-45326.602 -13805.6)" fill="#d60002"/>
    </g>
</svg>
