<svg xmlns="http://www.w3.org/2000/svg" xmlns:xlink="http://www.w3.org/1999/xlink" width="64" height="64" viewBox="0 0 64 64">
	<path id="路径_1049" data-name="路径 1049" d="M4772-1780h28a8.009,8.009,0,0,0,8-8v-12h-4v12a4,4,0,0,1-4,4h-28a4,4,0,0,1-4-4v-28a4.005,4.005,0,0,1,4-4h28a4,4,0,0,1,4,4v4h4v-4a8.009,8.009,0,0,0-8-8h-28a8.01,8.01,0,0,0-8,8v28A8.01,8.01,0,0,0,4772-1780Z" transform="translate(-4762 1826)"/>
	<path id="路径_1050" data-name="路径 1050" d="M4770-1780h28a8.009,8.009,0,0,0,8-8v-28a8.009,8.009,0,0,0-8-8h-28a8.01,8.01,0,0,0-8,8v12h4v-12a4.006,4.006,0,0,1,4-4h28a4.006,4.006,0,0,1,4,4v28a4,4,0,0,1-4,4h-28a4,4,0,0,1-4-4v-4h-4v4A8.01,8.01,0,0,0,4770-1780Z" transform="translate(-4744 1842)"/>
</svg>
