<svg xmlns="http://www.w3.org/2000/svg" xmlns:xlink="http://www.w3.org/1999/xlink" width="64" height="64" viewBox="0 0 64 64">
<path d="M 8 4 C 5.794387817382813 4 4 5.794387817382813 4 8 L 4 48 C 4 50.20561218261719 5.794387817382813 52 8 52 L 48 52 C 50.20561218261719 52 52 50.20561218261719 52 48 L 52 8 C 52 5.794387817382813 50.20561218261719 4 48 4 L 8 4 M 8 0 L 48 0 C 52.41827774047852 0 56 3.581722259521484 56 8 L 56 48 C 56 52.41827774047852 52.41827774047852 56 48 56 L 8 56 C 3.581722259521484 56 0 52.41827774047852 0 48 L 0 8 C 0 3.581722259521484 3.581722259521484 0 8 0 Z" transform="translate(4 4)"/>
<path id="联合_6" data-name="联合 6" d="M7,27V4H-4A2,2,0,0,1-6,2,2,2,0,0,1-4,0H22a2,2,0,1,1,0,4H11V27a2,2,0,1,1-4,0Z" transform="translate(23 18)" />
<path d="M48,56H8a8.009,8.009,0,0,1-8-8V8A8.009,8.009,0,0,1,8,0H48a8.009,8.009,0,0,1,8,8V48A8.009,8.009,0,0,1,48,56ZM8,4A4.005,4.005,0,0,0,4,8V48a4.005,4.005,0,0,0,4,4H48a4.005,4.005,0,0,0,4-4V8a4.005,4.005,0,0,0-4-4Z" stroke="none" transform="translate(4 4)"/>
</svg>
